# xmcd
#
# Track frame offsets: 
#        150
#        13160
#        25961
#        39233
#        53643
#        67835
#        80860
#        93357
#        105259
#        118851
#        131712
#        145806
#        158250
#        170722
#        183748
#        195110
#        211035
#        224167
#        237146
#        250104
#        262153
#        275900
#        288312
#        300362
#        313024
#
# Disc length: 4346 seconds
#
# Revision: 0
# Processed by: cddbd v1.5.2PL0 Copyright (c) Steve Scherf et al.
# Submitted via: ExactAudioCopyFreeDBPlugin 1.0
#
DISCID=6410f819
DTITLE=Roy Acuff and The Smoky Mountain Boys - The King of Country Music
DTITLE=Various Artist - Disc 1
DYEAR=1900
DGENRE=Country
TTITLE0=Singing My Way To Glory
TTITLE1=Charmin' Betsy
TTITLE2=The Great Speckled Bird
TTITLE3=My Mountain Home Sweet Home
TTITLE4=Gonna Raise A Ruckus Tonight
TTITLE5=Wabash Cannon Ball
TTITLE6=Freight Train Blues
TTITLE7=You've Gotta See Mama Every Night
TTITLE8=Gonna Have a Big Time Tonight
TTITLE9=Yes Sir, That's My Baby
TTITLE10=You're The Only Star (In My Blue Heaven)
TTITLE11=Please Don't Talk About Me, When I'm Gone
TTITLE12=All Night Long
TTITLE13=New Greenback Dollar
TTITLE14=Steamboat Whistle Blues
TTITLE15=She No Longer Belongs To Me
TTITLE16=When Lulu's Gone
TTITLE17=Doin' It The Old Fashioned Way
TTITLE18=An Old Three Room Shack
TTITLE19=Red Lips (Kiss My Blues Away)
TTITLE20=Trouble Trouble (Take 1)
TTITLE21=Trouble Trouble (Take 2)
TTITLE22=Sailing Along
TTITLE23=Steel Guitar Chimes
TTITLE24=Lonesome Valley
EXTD=
EXTT0=
EXTT1=
EXTT2=
EXTT3=
EXTT4=
EXTT5=
EXTT6=
EXTT7=
EXTT8=
EXTT9=
EXTT10=
EXTT11=
EXTT12=
EXTT13=
EXTT14=
EXTT15=
EXTT16=
EXTT17=
EXTT18=
EXTT19=
EXTT20=
EXTT21=
EXTT22=
EXTT23=
EXTT24=
PLAYORDER=
